<svg xmlns="http://www.w3.org/2000/svg" shape-rendering="geometricPrecision" text-rendering="geometricPrecision" image-rendering="optimizeQuality" fill-rule="evenodd" clip-rule="evenodd" viewBox="0 0 511.935 193.899"><path fill="#fff" d="M160.363 23.665h269.866c34.911 0 57.218 18.917 66.949 43.131 3.822 9.511 5.733 19.83 5.733 30.147 0 10.316-1.912 20.635-5.734 30.147-9.733 24.219-32.043 43.143-66.948 43.143H160.393a97.394 97.394 0 0020.485-24.85c12.406-21.488 16.62-47.693 9.701-73.514-5.214-19.456-16.012-35.946-30.216-48.204z"/><path fill="#4D4D4D" fill-rule="nonzero" d="M148.029 14.606h282.2c39.2 0 64.319 21.416 75.335 48.829 4.247 10.568 6.371 22.037 6.37 33.508 0 11.47-2.124 22.94-6.371 33.508-11.018 27.418-36.139 48.841-75.334 48.841H148.113a96.4 96.4 0 0012.28-9.059h269.836c34.905 0 57.215-18.924 66.948-43.143 3.822-9.512 5.734-19.831 5.734-30.147 0-10.317-1.911-20.636-5.733-30.147-9.731-24.214-32.038-43.131-66.949-43.131H160.363a97.757 97.757 0 00-12.334-9.059z"/><path fill="#1A1A1A" fill-rule="nonzero" d="M228.23 122.842V74.987h29.885v8.953h-17.906v11.4h13.59v8.888h-13.59v18.614H228.23zm49.078.515c-3.307 0-6.108-.515-8.416-1.535-2.308-1.02-4.165-2.416-5.561-4.197-1.395-1.782-2.404-3.833-3.027-6.14-.622-2.309-.923-4.745-.902-7.321.065-3.822.892-7.042 2.48-9.662 1.589-2.619 3.768-4.605 6.538-5.957 2.769-1.353 5.946-2.029 9.532-2.029 4.422 0 7.954.88 10.584 2.641 2.63 1.76 4.509 4.09 5.646 6.988 1.138 2.898 1.675 6.065 1.611 9.5-.043 3.843-.848 7.074-2.426 9.704-1.578 2.63-3.758 4.627-6.527 5.979-2.769 1.353-5.947 2.029-9.532 2.029zm.257-8.051c2.297 0 3.897-.848 4.788-2.533.891-1.686 1.331-4.23 1.331-7.643 0-1.932-.183-3.704-.547-5.303-.365-1.599-.977-2.877-1.836-3.832-.859-.956-2.04-1.428-3.543-1.428-2.34 0-3.961.848-4.873 2.544-.912 1.696-1.374 4.176-1.374 7.439 0 1.975.193 3.779.569 5.41.376 1.632.998 2.931 1.878 3.897.881.966 2.083 1.449 3.607 1.449zm24.475 7.536V70.543h11.658v52.299H302.04zm20.288 0V70.543h11.658v52.299h-11.658zm35.811.515c-3.307 0-6.108-.515-8.416-1.535-2.308-1.02-4.165-2.416-5.561-4.197-1.395-1.782-2.405-3.833-3.027-6.14-.623-2.309-.923-4.745-.902-7.321.065-3.822.891-7.042 2.48-9.662 1.589-2.619 3.768-4.605 6.537-5.957 2.77-1.353 5.947-2.029 9.533-2.029 4.422 0 7.954.88 10.584 2.641 2.63 1.76 4.508 4.09 5.646 6.988 1.138 2.898 1.675 6.065 1.611 9.5-.044 3.843-.849 7.074-2.427 9.704-1.578 2.63-3.757 4.627-6.526 5.979-2.77 1.353-5.947 2.029-9.532 2.029zm.257-8.051c2.297 0 3.897-.848 4.788-2.533.891-1.686 1.331-4.23 1.331-7.643 0-1.932-.183-3.704-.548-5.303-.365-1.599-.977-2.877-1.835-3.832-.859-.956-2.04-1.428-3.543-1.428-2.34 0-3.961.848-4.873 2.544-.913 1.696-1.374 4.176-1.374 7.439 0 1.975.193 3.779.569 5.41.375 1.632.998 2.931 1.878 3.897.88.966 2.083 1.449 3.607 1.449zm30.207 8.051l-10.756-36.39h11.336l3.285 14.492 3.091 14.942h-2.447l3.478-14.942 4.25-14.492h10.435l4.25 14.492 3.221 14.877h-2.319l3.027-14.877 3.414-14.492h10.82l-11.335 36.39h-10.177l-5.217-17.647-2.318-11.465h1.932l-2.383 11.465-5.024 17.647h-10.563z"/><path fill-rule="nonzero" d="M71.869 3.318c25.821-6.917 52.026-2.703 73.515 9.703 21.51 12.417 38.276 33.016 45.197 58.848 6.918 25.82 2.703 52.025-9.702 73.514-12.418 21.509-33.017 38.275-58.848 45.198-25.822 6.918-52.027 2.703-73.516-9.702-21.509-12.418-38.275-33.017-45.197-58.848-6.917-25.822-2.703-52.027 9.703-73.516C25.438 27.006 46.037 10.24 71.869 3.318z"/><path fill="#fff" fill-rule="nonzero" d="M125.559 51.984h15.255l-33.328 38.094 39.209 51.836h-30.702l-24.045-31.439-27.513 31.439H49.169l35.649-40.745-37.613-49.185h31.479l21.735 28.736 25.14-28.736zm-5.355 80.799h8.454L74.091 60.637h-9.07l55.183 72.146z"/></svg>